<?xml version="1.0" encoding="UTF-8" standalone="no"?>
<svg width="404px" height="40px" viewBox="0 0 404 40" version="1.1" xmlns="http://www.w3.org/2000/svg" xmlns:xlink="http://www.w3.org/1999/xlink">
    <!-- Generator: sketchtool 41 (35326) - http://www.bohemiancoding.com/sketch -->
    <title>750030E1-DD7C-4DF8-9A6B-AE40ECDF8143</title>
    <desc>Created with sketchtool.</desc>
    <defs></defs>
    <g id="main" stroke="none" stroke-width="1" fill="none" fill-rule="evenodd">
        <g id="Motherboard" transform="translate(-78.000000, -55.000000)" fill="#FFFFFF">
            <g id="motherboard_logo_white" transform="translate(78.000000, 55.000000)">
                <path d="M70.1214409,27.3975998 C65.9074044,27.3975998 62.962028,24.4043712 62.962028,20.0412309 C62.962028,15.9816686 65.704012,12.5826108 70.1214409,12.5826108 C74.5388699,12.5826108 77.2808538,15.9816686 77.2808538,20.0412309 C77.2808538,24.4043712 74.3354775,27.3975998 70.1214409,27.3975998 L70.1214409,27.3975998 Z M141.10285,13.4952502 L132.57181,13.4952502 L132.57181,0.608426265 L89.8206317,0.608426265 L89.8206317,12.1456617 C86.713177,4.59114141 79.0312998,0 70.1214409,0 C58.493751,0 48.9476552,7.81364127 48.9476552,19.8379988 C48.9476552,20.3194049 48.9667232,20.7900144 48.9959609,21.2561781 L45.5974008,0.608426265 L31.4311193,0.608426265 L27.114751,15.6266474 C26.6577536,17.2505994 26.4041487,19.0257052 26.1499082,20.6998301 L25.7946071,20.6998301 L20.513396,0.608426265 L6.19520576,0.608426265 L0,38.8643391 L13.4556793,38.8643391 L15.0802762,22.5270142 C15.2328205,21.0046784 15.3345167,19.4321695 15.4362129,17.9098337 L15.8932102,17.9098337 C15.9949064,19.5337856 16.3502075,21.0561215 16.7563568,22.6800734 L21.7324792,38.8643391 L29.8567349,38.8643391 L35.3915509,21.7147207 C35.7977002,20.4978682 36.0513051,19.1781294 36.3055456,17.9098337 L36.5591505,17.9098337 L38.4379879,38.8643391 L51.8936672,38.8643391 L49.6932155,25.4935686 C52.1415517,34.3379779 60.3675036,39.4727654 70.1214409,39.4727654 C81.799979,39.4727654 91.2958622,32.1157613 91.2958622,19.8379988 C91.2958622,17.3788897 90.8909842,15.1001491 90.1562291,13.0240057 L97.4872544,12.6842269 L97.4872544,38.8643391 L111.400567,38.8643391 L111.400567,12.6842269 L119.166979,13.0221004 L119.166979,38.8643391 L132.57181,38.8643391 L132.57181,25.5710508 L141.10285,25.5710508 L141.10285,38.8643391 L154.507682,38.8643391 L154.507682,0.608426265 L141.10285,0.608426265 L141.10285,13.4952502 L141.10285,13.4952502 Z" id="Fill-1"></path>
                <polyline id="Fill-2" points="171.994006 24.620872 182.774133 24.620872 182.774133 14.7510393 171.994006 14.7510393 171.994006 11.125335 183.798162 11.125335 183.798162 0.751862197 157.891061 0.751862197 157.891061 38.7209032 184.206238 38.7209032 184.206238 28.3480607 171.994006 28.3480607 171.994006 24.620872"></polyline>
                <path d="M381.686087,27.3975998 L380.823238,27.3975998 L380.823238,12.5826108 L381.686087,12.5826108 C386.758419,12.5826108 389.851722,14.8657971 389.851722,20.243828 C389.851722,25.2668377 386.301915,27.3975998 381.686087,27.3975998 L381.686087,27.3975998 Z M346.031195,17.5548125 L345.068029,17.5548125 L345.068029,11.060275 L346.132781,11.060275 C348.51752,11.060275 350.59623,11.4159312 350.59623,14.3583518 C350.59623,17.1997913 348.313712,17.5548125 346.031195,17.5548125 L346.031195,17.5548125 Z M309.157901,25.0127975 L311.694385,13.3434612 L312.201047,13.3434612 C312.455647,14.9674131 312.708978,16.6409029 313.115323,18.2648549 L314.73753,25.0127975 L309.157901,25.0127975 L309.157901,25.0127975 Z M275.329658,27.3975998 C271.12081,27.3975998 268.178616,24.4043712 268.178616,20.0412309 C268.178616,15.9816686 270.918272,12.5826108 275.329658,12.5826108 C279.743583,12.5826108 282.48197,15.9816686 282.48197,20.0412309 C282.48197,24.4043712 279.540411,27.3975998 275.329658,27.3975998 L275.329658,27.3975998 Z M236.918602,29.7315941 L235.345284,29.7315941 L235.345284,23.3894807 L236.715429,23.3894807 C238.946519,23.3894807 242.497595,23.3386726 242.497595,26.5351334 C242.497595,29.6807861 239.200485,29.7315941 236.918602,29.7315941 L236.918602,29.7315941 Z M235.345284,9.84278732 L236.309719,9.84278732 C238.338271,9.84278732 240.924912,9.63955517 240.924912,12.4809947 C240.924912,15.1192022 238.642395,15.3224343 236.613208,15.3224343 L235.345284,15.3224343 L235.345284,9.84278732 L235.345284,9.84278732 Z M201.769736,17.5548125 L200.806571,17.5548125 L200.806571,11.060275 L201.871958,11.060275 C204.256062,11.060275 206.334772,11.4159312 206.334772,14.3583518 C206.334772,17.1997913 204.052889,17.5548125 201.769736,17.5548125 L201.769736,17.5548125 Z M381.077839,0.608426265 L366.925595,0.608426265 L366.925595,38.1028536 L359.118052,26.4335173 C358.356154,25.3176457 357.493941,24.7085844 356.783471,24.1509662 L356.783471,23.846753 C361.957389,22.121185 364.189114,19.6855746 364.189114,13.9017145 C364.189114,4.26215936 356.885693,0.608426265 348.262919,0.608426265 L331.473241,0.608426265 L331.473241,34.1639604 L319.505103,0.608426265 L304.136363,0.608426265 L296.169456,23.543175 C296.371359,22.3637934 296.482469,21.1297931 296.482469,19.8379988 C296.482469,7.81364127 286.946053,0 275.329658,0 C263.715168,0 254.179387,7.81364127 254.179387,19.8379988 C254.179387,21.5553105 254.370496,23.1729114 254.722239,24.6908016 C253.696852,22.0983214 251.52354,20.2685969 248.583886,19.2289374 L248.583886,18.9247243 C251.931155,17.8590256 253.605424,14.5615839 253.605424,11.212064 C253.605424,2.38480232 246.048037,0.608426265 238.642395,0.608426265 L222.463504,0.608426265 L222.463504,37.8024511 L214.856594,26.4335173 C214.095331,25.3176457 213.232482,24.7085844 212.523918,24.1509662 L212.523918,23.846753 C217.697201,22.121185 219.928291,19.6855746 219.928291,13.9017145 C219.928291,4.26215936 212.624234,0.608426265 204.001461,0.608426265 L187.213687,0.608426265 L187.213687,38.8643391 L200.806571,38.8643391 L200.806571,26.5853063 L201.061172,26.5853063 L207.146192,38.8643391 L241.380781,38.8643391 C248.076589,38.8643391 255.38001,36.1753236 255.38001,28.3108743 C255.38001,27.6592612 255.320963,27.0425787 255.216202,26.4538405 C257.975541,34.7082415 265.944352,39.4727654 275.329658,39.4727654 C283.47815,39.4727654 290.556812,35.8812721 294.088841,29.5353481 L290.848238,38.8643391 L305.557936,38.8643391 L306.673481,34.0947345 L317.172427,34.0947345 L318.440351,38.8643391 L345.068029,38.8643391 L345.068029,26.5853063 L345.320725,26.5853063 L351.407016,38.8643391 L384.526694,38.8643391 C395.736109,38.8643391 403.75,31.6597592 403.75,20.294636 C403.75,6.23986227 393.91073,0.608426265 381.077839,0.608426265 L381.077839,0.608426265 Z" id="Fill-3"></path>
            </g>
        </g>
    </g>
</svg>